<svg width="209" height="325" viewBox="0 0 209 325" fill="none" xmlns="http://www.w3.org/2000/svg">
<g filter="url(#filter0_dddd_1_2044)">
<g clip-path="url(#clip0_1_2044)">
<path d="M88.0308 57.2457L87.9529 54.1289C86.3913 53.0856 85.9053 54.5695 85.2314 55.36C80.3843 61.0948 76.0622 61.6845 69.8219 57.4013C68.5583 56.5329 67.3466 55.522 65.7849 56.8116C64.8129 57.8808 64.2297 59.2221 63.3484 60.3561C59.9464 67.199 47.8417 66.9139 43.5455 62.3909C40.3379 59.0148 39.7871 59.2092 36.9424 62.987C35.1428 65.4334 32.4986 67.1239 29.5228 67.7304C28.4018 67.9766 27.1187 67.8794 26.3605 69.0264C27.0798 70.9704 28.7841 70.5621 30.1903 70.4261C32.8817 70.109 35.3903 68.9026 37.3183 66.9981C37.9145 66.4409 38.517 65.5337 39.489 66.0002C40.2407 66.3631 40.1889 67.2962 40.2537 68.0285C40.7138 73.0699 40.9017 78.1308 41.3359 83.1722C41.446 84.4293 41.135 85.2134 39.7418 85.4726C38.8216 85.6411 37.3896 85.3689 37.5127 87.0861C37.861 87.4872 38.3076 87.7909 38.8087 87.9674C40.9342 88.8487 40.8563 90.0345 38.99 90.9871C36.3073 92.3673 34.2986 94.5641 31.9334 96.3266C32.225 98.1216 32.9896 98.4909 34.7198 97.5513C36.1389 96.7737 37.085 95.3741 38.4717 94.5511C39.541 93.9031 40.7008 92.7626 41.9385 93.8448C43.3446 95.076 43.1243 96.9876 43.2345 98.6659C43.3317 100.04 42.3014 100.37 41.1544 100.61C40.0074 100.85 38.4457 100.876 38.8151 102.82C42.055 103.766 45.4636 104.2 47.602 107.427C49.5136 110.33 50.7901 113.259 49.6755 116.739C49.5006 120.167 46.7985 122.635 46.1959 125.908C48.1399 135.427 48.1917 145.166 49.7858 154.731C50.7578 160.563 51.3992 166.479 52.1185 172.363C52.4944 175.428 52.2288 175.856 49.1767 175.856C43.902 175.856 38.6142 176.206 33.3525 175.545C32.0565 175.383 30.7605 175.272 29.6848 176.277C30.0931 178.629 32.1601 178.435 33.6765 178.558C39.0225 178.979 44.362 179.854 49.7404 179.439C59.0457 178.681 68.3898 178.266 77.5331 176.102C82.6754 174.973 87.7101 173.399 92.5798 171.397C93.9081 170.821 95.5022 170.432 95.9104 168.663C93.6554 162.909 94.2775 156.772 93.6943 150.81C92.1909 135.492 91.1023 120.115 88.8083 104.906C86.7023 91.175 86.32 77.2884 84.2723 63.5767C84.158 62.8313 84.2395 62.069 84.5087 61.3647C84.778 60.6603 85.2256 60.0381 85.808 59.5591C86.6115 58.8398 87.6031 58.3279 88.0308 57.2457Z" fill="#FCC224"/>
<path d="M38.8021 102.606C39.1263 102.111 39.6066 101.739 40.1668 101.549C40.7269 101.358 41.3345 101.361 41.8929 101.556C43.1176 101.964 43.6621 101.277 44.1157 100.338C44.8674 98.7566 43.8176 93.6244 42.6058 92.484C41.7634 91.6934 41.0635 92.1211 40.2794 92.484C38.4055 93.2694 36.7333 94.4678 35.3871 95.9896C34.6031 96.8839 33.7346 97.7133 32.3738 97.3245C32.3026 97.3245 32.2378 97.1431 32.2378 97.0524C32.2378 96.9617 32.335 96.8644 32.3868 96.7737C32.5256 95.1228 33.0441 93.5263 33.9018 92.1089C34.7594 90.6914 35.9331 89.4914 37.3311 88.6024C37.8366 88.272 38.4263 87.8832 38.1606 87.0796C38.3356 85.8873 39.3398 86.3474 39.8194 86.4705C42.7613 87.2546 42.9622 85.4985 42.5734 83.4573C41.6467 78.5844 42.1912 73.6012 41.4006 68.7218C41.2775 67.9831 41.4653 67.1731 41.2514 66.4732C40.9857 65.592 41.0571 64.3802 40.0008 63.9979C38.9446 63.6156 38.2383 64.6459 37.6292 65.2939C35.0372 68.1775 31.9462 69.8299 27.9998 69.5642C27.4907 69.4488 27.0001 69.2635 26.5418 69.0134C26.4362 68.7106 26.2655 68.4347 26.0416 68.2052C25.8177 67.9756 25.5459 67.798 25.2458 67.685C22.1432 66.4755 19.475 64.3626 17.5866 61.6197C17.1654 61.0365 16.5951 60.3237 15.7916 60.5181C14.8067 60.7903 15.2148 61.7752 15.2213 62.4621C15.2213 64.594 15.0398 66.726 15.3379 68.8514C17.4763 81.1634 18.3965 93.605 19.9388 105.988C21.3125 117.082 22.3559 128.215 23.5806 139.334C23.6701 139.64 23.6938 139.96 23.6502 140.275C23.6066 140.59 23.4967 140.892 23.3278 141.162C22.5632 144.343 23.6193 147.434 23.7684 150.577C24.384 155.852 24.7664 161.146 25.3626 166.421C25.4841 167.794 25.7645 169.149 26.1984 170.458C26.7686 172.531 26.95 174.735 28.2849 176.543C28.5101 176.7 28.7809 176.778 29.0552 176.765C29.3295 176.752 29.5918 176.649 29.8013 176.471C36.7543 177.294 43.7463 176.964 50.7188 177.119C53.2395 177.178 54.0106 176.225 53.6737 173.879C52.2027 163.511 50.8484 153.111 49.2543 142.775C48.4896 137.818 49.2543 132.751 47.9583 127.832C47.8036 126.899 47.3321 126.048 46.6234 125.422C46.5132 125.227 46.3642 124.981 46.1893 124.994C40.8627 125.363 37.7652 122.402 35.6203 117.983C33.7411 113.149 34.0198 108.69 37.7847 104.783C38.3161 104.161 39.1067 103.636 38.8021 102.606Z" fill="#F9A907"/>
<path d="M29.7821 176.445L28.6935 176.517C27.242 177.398 27.9094 178.765 27.9742 179.945C28.1426 183.385 28.5509 186.846 26.0302 189.729L29.199 189.989C29.6295 190.541 30.1693 190.999 30.7848 191.333C31.4003 191.668 32.0781 191.872 32.7759 191.933C36.0678 192.399 39.3337 193.021 42.6774 193.028C47.0708 192.723 51.4771 192.956 55.8771 192.905C70.0902 192.826 84.1238 189.723 97.0445 183.8C98.509 183.152 99.9606 182.4 100.809 180.91C100.401 176.16 100.161 171.391 99.1505 166.719C97.3102 166.11 96.5261 167.367 95.7356 168.663C86.4821 173.568 76.3993 175.668 66.1739 176.925C56.1688 178.15 46.0858 178.947 35.9965 177.696C33.8775 177.417 31.7131 177.56 29.7821 176.445Z" fill="#DD73C2"/>
<path d="M100.79 180.904C97.7636 182.251 94.8022 183.768 91.7177 184.928C78.2329 189.991 63.8925 192.386 49.4941 191.978C47.2391 191.913 44.958 191.978 42.7289 191.978C42.9168 193.669 44.3295 193.481 45.4117 193.611C47.3557 193.831 49.2673 193.676 51.1983 193.708C54.9049 193.779 55.0475 193.889 55.1576 197.473C55.216 199.417 55.6242 201.309 55.8056 203.221C56.2592 207.854 58.6503 210.679 63.0827 211.871C68.3379 213.239 73.3211 211.697 78.3236 210.439C81.5636 209.623 84.674 208.424 87.8881 207.536C90.102 206.98 92.0756 205.72 93.5127 203.946C94.4532 202.759 95.6404 201.791 96.9924 201.108C101.075 199.022 101.93 197.421 101.457 192.879C101.299 192.368 101.311 191.82 101.49 191.317C101.749 187.818 100.971 184.377 100.79 180.904Z" fill="#7F5EBC"/>
<path d="M96.7203 141.492C97.8931 140.131 99.5585 140.715 100.978 140.533C113.011 139.004 119.621 131.461 123.01 120.549C123.975 117.425 124.993 114.807 127.993 112.812C131.317 110.602 133.462 107.025 135.082 103.331C135.983 101.284 137.104 98.8602 135.147 96.9745C133.047 94.9463 130.999 96.8449 128.751 98.0567C128.751 96.3006 128.855 94.7519 128.751 93.2226C128.608 91.5767 128.207 89.9243 126.211 89.5614C124.215 89.1985 123.23 90.5204 122.55 92.0756C122.038 93.255 121.701 94.5057 121.254 95.9183C120.1 95.2703 120.301 93.8771 119.672 93.0088C118.895 91.9201 118.098 90.8833 116.588 91.0648C115.078 91.2462 114.404 92.4126 113.996 93.6568C113.076 96.7477 113.925 99.8322 114.275 102.93C114.048 102.93 113.834 103.053 113.711 102.982C111.909 101.971 109.92 100.603 108.229 102.729C106.615 104.751 107.788 106.831 109.129 108.632C110.691 110.707 112.66 112.44 114.916 113.725C115.953 114.328 116.536 114.84 116.089 116.246C112.758 126.666 107.976 132.284 96.0528 132.414C93.1692 133.561 94.0441 136.088 94.0441 138.2C94.0311 139.872 94.5559 141.427 96.7203 141.492Z" fill="#172F6D"/>
<path d="M70.4759 30.0879C65.4539 24.4827 60.4514 18.8646 55.4034 13.2853C53.48 11.105 51.3048 9.16034 48.9235 7.49216C46.2861 5.69072 43.9857 5.89161 41.7955 8.34753C38.4583 12.0994 36.307 16.5512 34.1103 20.99C31.5183 26.174 28.9262 31.358 26.3018 36.542C26.7489 38.5767 28.4986 38.6804 30.0473 39.0433C34.7453 40.1319 39.5015 39.4191 44.2255 39.458C48.5087 39.458 52.6495 38.5054 56.7449 37.4298C60.756 36.205 64.8772 35.2655 68.5254 33.1011C69.6335 32.4726 71.2924 32.0319 70.4759 30.0879Z" fill="#393578"/>
<path d="M44.6145 38.5832C39.5293 38.907 34.4237 38.6417 29.3994 37.7926C28.3108 37.5917 27.0018 37.8315 26.315 36.5679C23.0166 43.2812 19.7507 50.0009 16.407 56.6947C14.463 60.5828 14.4242 64.6716 15.3184 68.8253L15.3184 61.2048L15.9664 60.6735C18.1243 65.378 21.7983 67.9116 26.5481 69.0003C31.9071 69.0003 36.1126 66.8619 38.6787 62.0408C39.709 60.0968 40.6227 60.4661 41.7437 61.8269C45.8132 66.6805 51.0815 67.484 56.8876 66.188C60.1276 65.4622 62.7908 63.7839 64.1516 60.5309C63.9288 60.3726 63.6598 60.2924 63.3867 60.303C63.1136 60.3135 62.8516 60.4142 62.6417 60.5892C60.2247 62.8184 57.1078 62.6175 54.2177 63.1294C49.3512 63.9783 45.6706 61.9889 42.5537 58.4638C41.7113 57.4784 41.2313 56.2346 41.193 54.9387C40.9144 50.8369 41.7438 46.8192 41.9836 42.7563C42.0743 40.7604 44.2646 40.3004 44.6145 38.5832Z" fill="#E7DABF"/>
<path d="M26.0105 189.729C29.4254 189.464 29.6522 187.241 29.3346 184.545C29.0171 181.85 28.9005 179.206 28.6866 176.536C27.922 174.631 28.5182 172.305 26.8917 170.659C26.1854 169.363 24.8958 168.76 23.6517 168.144C21.7089 167.224 19.8801 166.08 18.202 164.736C15.448 162.481 15.2665 159.902 17.6317 157.226C19.0366 155.599 20.6263 154.142 22.3686 152.884C23.2305 152.281 24.2478 151.782 24.4617 150.577C24.5913 147.369 24.6496 144.181 23.3082 141.162C19.2197 143.091 15.4379 145.613 12.0848 148.646C3.62193 156.629 4.52273 167.308 14.2751 173.672C17.5929 175.83 17.5865 175.83 15.137 179.083C14.8028 179.494 14.4953 179.927 14.2168 180.379C13.3744 181.875 12.3311 183.379 13.4651 185.167C14.2427 186.399 15.2537 186.496 18.2085 185.751C18.9408 186.561 18.1243 187.332 18.0725 188.096C17.917 190.358 18.5455 192.276 20.6645 193.177C22.926 194.129 24.2738 192.632 25.2976 190.805C25.5115 190.436 25.7707 190.092 26.0105 189.729Z" fill="#202469"/>
<path d="M88.0889 235.18C91.7566 243.734 94.0052 244.459 102.112 239.716C102.481 239.502 102.863 239.327 103.239 239.133C106.181 236.781 109.032 234.357 110.944 231.02C113.043 227.352 112.888 223.425 110.523 221.164C108.281 219.032 104.444 218.954 100.893 220.976C98.8198 222.155 97.122 223.801 95.2364 225.7C92.6444 220.483 90.2727 215.235 86.6828 210.718C86.2551 209.727 85.8275 208.521 84.4667 208.884C81.7256 209.623 78.6346 209.694 76.7294 212.299C76.5415 213.595 77.1831 214.6 77.7987 215.604C81.2526 221.203 84.4343 226.931 86.5792 233.184C86.8039 234.021 87.3453 234.736 88.0889 235.18Z" fill="#232181"/>
<path d="M96.7199 141.492C94.7241 139.438 94.3871 134.96 96.033 132.42C95.9461 132.312 95.8206 132.242 95.683 132.226C94.9314 130.165 95.9229 127.949 95.1258 125.895C94.4778 120.944 94.0177 115.974 93.4475 110.991C92.7995 105.269 92.3394 99.5341 91.6979 93.8188C91.2508 89.8141 90.8361 85.7771 90.6158 81.74C90.2454 73.5241 89.3798 65.3379 88.0238 57.2262C84.1358 58.0751 82.6778 60.3755 83.1573 63.9848C84.0451 70.6592 84.7448 77.3661 85.3604 84.0729C86.1056 92.1534 86.4815 100.273 88.1469 108.256C89.229 113.44 89.3586 118.864 89.9094 124.184C90.6935 131.733 91.51 139.282 92.2423 146.832C92.6181 150.778 93.0717 154.731 93.0717 158.684C93.0717 161.502 93.9335 164.198 93.8169 167.004C93.765 168.3 94.6139 168.624 95.709 168.624C97.3614 168.89 97.8798 167.146 99.124 166.68C99.1681 161.031 98.6821 155.39 97.6724 149.832C96.8041 147.713 97.8734 145.413 97.0698 143.287C96.9597 142.697 96.8365 142.095 96.7199 141.492Z" fill="#FBB41A"/>
<path d="M70.4763 30.088C70.4763 31.6497 69.0507 31.7663 68.1111 32.3106C64.6055 34.3518 60.6072 35.097 56.8683 36.5226C61.5015 40.793 63.1216 46.9425 66.5041 51.9904C67.1521 52.917 66.8022 53.8178 66.1542 54.6602C65.5062 55.5026 65.0979 56.3191 65.9662 57.2522C67.1002 56.4811 67.852 57.0513 68.7721 57.8224C75.2521 63.285 81.6089 62.3001 86.4559 55.1267C86.8382 54.563 87.1752 54.0446 87.9528 54.1353C88.0954 50.189 85.5294 47.6553 83.1577 45.0633C78.7383 40.1839 74.4291 35.3044 70.4763 30.088Z" fill="#EEE0CA"/>
<path d="M63.3939 211.366C63.2773 211.185 63.193 210.88 63.0375 210.841C56.0909 209.001 57.0111 203.033 56.2854 197.953C56.1806 197.092 56.1806 196.221 56.2854 195.361C56.4992 193.261 55.6374 192.438 53.5184 192.548C50.9264 192.684 48.3344 192.6 45.7424 192.548C44.6926 192.548 43.5587 192.84 42.6709 191.959C38.1349 191.57 33.5988 191.136 29.1471 189.963L30.9161 203.61C31.0003 203.545 31.1624 203.448 31.1559 203.415C31.0393 203.117 31.3826 203.02 31.3761 203.098C31.3113 206.552 33.7543 207.945 36.3917 209.001C43.7594 211.949 51.5744 212.442 59.3699 212.954C60.8667 213.077 62.4219 212.792 63.3939 211.366Z" fill="#7253B2"/>
<path d="M63.3933 211.366C53.926 212.539 44.841 210.861 35.9699 207.646C33.0215 206.571 31.3626 204.555 31.6542 201.225C30.7794 201.387 31.2071 201.996 31.1099 202.359C31.0194 202.785 30.9652 203.219 30.9479 203.655C31.3626 208.897 33.2158 211.12 38.3739 212.623C41.251 213.459 44.329 213.491 47.1089 214.729C50.1221 215.377 53.4205 215.092 55.9348 217.399C58.1898 215.986 60.6587 215.701 63.2702 215.682C66.9055 215.649 70.4759 214.904 74.0463 214.263C75.1998 214.055 76.3662 213.777 77.0013 212.604C79.1332 210.893 81.9066 210.783 84.2913 209.694C85.4901 209.15 85.9695 210.187 86.6823 210.718C86.5657 209.422 87.6867 209.526 88.393 209.182C91.9699 207.446 95.56 205.728 98.5278 202.974C102.021 199.734 103.064 195.879 101.47 191.343C100.55 192.347 101.068 193.604 100.867 194.732C100.452 197.091 100.031 199.365 96.979 199.916C94.9831 200.272 93.6354 201.912 92.5014 203.441C91.6481 204.665 90.4165 205.576 88.9957 206.033C80.6625 208.716 72.4134 211.904 63.3933 211.366Z" fill="#4D3590"/>
<path d="M55.7018 217.25C55.7018 215.565 55.3519 214.269 53.2006 214.561C51.1788 214.833 49.0987 212.876 47.1093 214.71C45.0033 222.518 43.1566 225.194 37.0006 225.622C32.2443 225.946 29.3541 230.022 28.8292 235.99C29.0625 239.761 31.4212 242.178 34.2918 244.103C38.776 247.09 43.4676 249.494 49.1441 248.147C49.1052 246.935 48.1137 246.902 47.3102 246.766C40.9792 245.645 36.3461 241.634 31.7582 237.623C30.5724 236.593 30.5271 235.122 31.1686 233.735C33.5467 228.642 38.8667 227.197 43.3768 230.359C44.608 231.227 45.8068 232.173 47.4333 232.141C52.7015 230.223 57.1209 222.272 55.7018 217.25Z" fill="#201B67"/>
<path d="M90.6225 81.7595C90.4994 88.7255 91.6852 95.5878 92.3591 102.496C93.033 109.403 93.7523 116.304 94.4392 123.232C94.5364 124.171 94.2318 125.176 95.1326 125.927C94.4068 117.698 93.7198 109.462 92.9422 101.238C92.4303 95.7887 91.8018 90.352 91.2186 84.9088C91.1085 83.8202 91.3029 82.7056 90.6225 81.7595Z" fill="#FCC224"/>
<path d="M95.1262 125.875C95.3077 127.988 94.4781 130.185 95.6834 132.206C95.8778 130.061 95.9816 127.93 95.1262 125.875Z" fill="#FCC224"/>
<path d="M97.0769 143.3C97.2648 145.484 96.3964 147.765 97.6795 149.845C97.6406 147.648 97.9906 145.419 97.0769 143.3Z" fill="#FCC224"/>
<path d="M65.9662 57.2458C65.9662 56.9283 65.8819 56.4358 66.0439 56.3127C69.5626 53.7207 67.34 51.4462 65.8496 48.9384C63.9056 45.6595 62.1236 42.2446 60.3481 38.8491C59.59 37.3846 58.592 36.4579 56.8683 36.5227L44.6147 38.5834C41.3747 39.0176 40.7267 41.3179 40.7267 44.059C40.7267 47.1823 39.9036 50.215 40.0138 53.3707C40.2082 58.9046 45.1979 64.3867 50.7577 64.3219C55.4751 64.2571 60.4776 64.6006 64.1194 60.5312C64.6291 60.1328 65.0549 59.6374 65.3719 59.0734C65.6889 58.5095 65.8909 57.8883 65.9662 57.2458Z" fill="#FDF2DB"/>
<path d="M35.1473 118.307C36.2359 120.361 36.9294 122.629 38.9576 124.139C41.3487 125.921 43.9082 125.849 46.5974 125.376C49.2283 123.07 50.2586 120.05 50.4854 116.674C51.0038 114.477 50.4013 112.429 49.4811 110.498C48.561 108.567 47.4852 107.505 45.2949 109.325C43.3509 110.965 42.3337 110.369 42.1587 107.777C41.9837 105.185 40.7979 104.537 38.4132 105.412C36.0286 106.286 34.8686 108.347 34.4863 110.596C34.0327 113.129 33.8772 115.818 35.1473 118.307Z" fill="#0A253D"/>
<path d="M69.2194 111.522C69.6276 112.734 69.9645 113.985 70.4635 115.164C71.6947 118.048 73.4053 120.542 76.8851 120.737C80.6824 120.957 82.7172 118.514 84.1169 115.397C84.9074 112.352 85.3222 109.287 83.9743 106.325C82.795 103.688 81.8943 103.487 79.4383 105.029C77.4943 106.261 76.7103 105.813 76.5288 103.332C76.3409 100.74 75.168 100.046 72.8093 101.161C69.6017 102.645 68.3575 106.28 69.2194 111.522Z" fill="#0D273F"/>
<path d="M82.0628 89.5226C82.9052 89.3153 83.5338 88.745 83.3588 87.9221C81.8295 81.805 82.5487 75.4675 81.486 69.305C80.9158 66.0002 79.2439 64.4256 76.153 64.3867C73.4249 64.3543 71.9604 65.6438 71.8244 68.4238C71.6624 71.6638 72.3232 74.8325 72.8416 77.9947C73.0943 79.524 73.3276 80.9625 72.5306 82.3752C72.6659 82.665 72.8784 82.912 73.1447 83.0892C73.411 83.2664 73.7209 83.3668 74.0405 83.3796C77.9544 83.7943 80.5594 85.9262 82.0628 89.5226Z" fill="#FDC448"/>
<path d="M71.6947 134.5C73.3107 132.116 74.2326 129.33 74.3579 126.452C74.5523 122.933 73.8525 122.564 70.5218 124.165C66.5042 128.947 61.2165 129.297 55.6178 128.416C54.6743 128.227 53.7453 127.971 52.8379 127.651C51.7104 126.614 50.2459 126.115 49.1184 127.152C48.1334 128.046 49.1184 129.368 49.4943 130.392C50.403 132.917 51.9688 135.154 54.0303 136.872C57.3999 134.073 61.0481 132.265 65.6943 132.647C67.8651 132.848 69.5887 134.209 71.6947 134.5Z" fill="#431B35"/>
<path d="M71.6948 134.5C67.3467 129.511 56.6223 130.956 53.9784 136.885C59.0393 142.905 67.7355 141.732 71.6948 134.5Z" fill="#A43881"/>
<path d="M69.2191 111.522C69.3228 109.267 69.42 106.986 70.392 104.919C71.5325 102.47 73.2821 101.031 76.5156 101.284C75.1224 103.455 74.0273 105.742 76.8655 107.019C79.2437 108.094 80.6498 106.558 81.1617 103.876C84.5896 107.33 84.648 111.282 84.1166 115.397C88.4064 106.928 82.8725 97.6679 73.7811 98.0956C68.7007 101.919 67.2622 106.176 69.2191 111.522Z" fill="#F4F3E3"/>
<path d="M35.1474 118.307C34.5642 115.417 34.4217 112.54 35.4974 109.727C36.5731 106.915 38.4329 105.593 41.6858 105.982C40.5453 108.004 39.5086 110.168 42.1978 111.38C44.55 112.449 46.0857 111.036 46.8244 108.703C49.5979 110.699 49.8764 113.764 50.4791 116.68C52.8767 109.436 46.8114 102.126 38.8151 102.606C33.5468 106.442 31.8556 113.706 35.1474 118.307Z" fill="#F6F5E2"/>
<path d="M82.0629 89.5227C82.8988 85.9133 80.2549 84.6433 77.8185 83.3019C76.179 82.4012 74.2998 82.5696 72.5049 82.3752C70.8266 83.5481 69.4786 84.8052 71.2606 86.9112C74.6517 87.356 77.9402 88.3842 80.9806 89.9504C81.3759 90.1383 81.7971 89.8596 82.0822 89.5032L82.0629 89.5227Z" fill="#453065"/>
<path d="M38.1607 87.0537C35.547 88.2096 33.4486 90.2849 32.2638 92.8857C31.6677 94.2271 31.3955 95.4777 32.3869 96.7284C35.7047 95.238 37.8171 91.9785 41.2969 90.689C41.9967 90.4298 42.1587 89.4643 41.7634 88.6932C40.9988 87.2481 39.5409 87.1639 38.1607 87.0537Z" fill="#7F3863"/>
<path d="M52.812 127.664C57.7303 132.167 68.364 130.068 70.5219 124.171C66.1155 126.329 61.385 126.977 56.5509 127.217C55.3003 127.269 53.9784 126.828 52.812 127.664Z" fill="#F8F2E4"/>
<path d="M71.157 87.6823C71.319 90.5399 70.8201 93.4106 71.6625 96.2618C72.0254 97.5059 72.5049 98.1345 73.7815 98.0891C74.1767 94.5899 74.1897 91.1231 73.101 87.7211C72.8307 87.4925 72.4898 87.3638 72.1358 87.3568C71.7818 87.3497 71.4363 87.4646 71.157 87.6823Z" fill="#FBB41A"/>
<path d="M71.1565 87.6823L73.1005 87.7276C75.3944 87.7989 77.3319 88.9005 79.3407 89.8401C80.2738 90.2743 81.4013 91.4666 82.1077 89.5161C80.5719 89.9308 79.5158 88.8228 78.3234 88.2201C76.1083 87.2239 73.6847 86.7792 71.2602 86.9241C71.2278 87.1768 71.1954 87.4296 71.1565 87.6823Z" fill="#FDC448"/>
<path d="M50.3496 234.947C49.3258 233.839 47.6215 233.314 47.4077 231.512C46.2413 231.512 45.4638 230.689 44.5695 230.1C38.595 226.056 37.7461 226.108 32.4195 231.02C29.8275 233.424 28.6935 236.781 30.4431 237.973C32.1927 239.165 33.4757 240.954 35.3225 242.081C39.6706 244.725 43.7466 247.913 49.1444 248.153C53.8619 246.591 55.2033 243.87 53.2204 239.476C52.5011 237.863 51.3216 236.45 50.3496 234.947Z" fill="#282889"/>
<path d="M54.4057 32.0514C55.4231 31.7015 56.7645 31.3321 58.0411 30.7943C59.8685 30.0232 60.484 28.7272 59.2657 26.9711C57.4384 24.3272 55.5334 21.7353 53.7125 19.0914C51.8916 16.4476 50.2522 13.9074 48.5285 11.3154C47.9647 10.4601 47.3296 9.6695 46.1891 10.2721C45.807 10.492 45.5181 10.8434 45.3761 11.2608C45.2342 11.6782 45.2491 12.133 45.4181 12.5401C46.9992 18.2166 48.5738 23.8931 50.2456 29.5372C50.7835 31.3451 52.3516 31.87 54.4057 32.0514Z" fill="#5A539E"/>
</g>
</g>
<defs>
<filter id="filter0_dddd_1_2044" x="-0.00153828" y="4.86374e-05" width="208.237" height="324.135" filterUnits="userSpaceOnUse" color-interpolation-filters="sRGB">
<feFlood flood-opacity="0" result="BackgroundImageFix"/>
<feColorMatrix in="SourceAlpha" type="matrix" values="0 0 0 0 0 0 0 0 0 0 0 0 0 0 0 0 0 0 127 0" result="hardAlpha"/>
<feOffset dx="2.7" dy="2.7"/>
<feGaussianBlur stdDeviation="4.5"/>
<feColorMatrix type="matrix" values="0 0 0 0 0 0 0 0 0 0 0 0 0 0 0 0 0 0 0.26 0"/>
<feBlend mode="normal" in2="BackgroundImageFix" result="effect1_dropShadow_1_2044"/>
<feColorMatrix in="SourceAlpha" type="matrix" values="0 0 0 0 0 0 0 0 0 0 0 0 0 0 0 0 0 0 127 0" result="hardAlpha"/>
<feOffset dx="11.7" dy="11.7"/>
<feGaussianBlur stdDeviation="8.1"/>
<feColorMatrix type="matrix" values="0 0 0 0 0 0 0 0 0 0 0 0 0 0 0 0 0 0 0.22 0"/>
<feBlend mode="normal" in2="effect1_dropShadow_1_2044" result="effect2_dropShadow_1_2044"/>
<feColorMatrix in="SourceAlpha" type="matrix" values="0 0 0 0 0 0 0 0 0 0 0 0 0 0 0 0 0 0 127 0" result="hardAlpha"/>
<feOffset dx="25.2" dy="27"/>
<feGaussianBlur stdDeviation="11.25"/>
<feColorMatrix type="matrix" values="0 0 0 0 0 0 0 0 0 0 0 0 0 0 0 0 0 0 0.13 0"/>
<feBlend mode="normal" in2="effect2_dropShadow_1_2044" result="effect3_dropShadow_1_2044"/>
<feColorMatrix in="SourceAlpha" type="matrix" values="0 0 0 0 0 0 0 0 0 0 0 0 0 0 0 0 0 0 127 0" result="hardAlpha"/>
<feOffset dx="45" dy="48.6"/>
<feGaussianBlur stdDeviation="13.5"/>
<feColorMatrix type="matrix" values="0 0 0 0 0 0 0 0 0 0 0 0 0 0 0 0 0 0 0.04 0"/>
<feBlend mode="normal" in2="effect3_dropShadow_1_2044" result="effect4_dropShadow_1_2044"/>
<feBlend mode="normal" in="SourceGraphic" in2="effect4_dropShadow_1_2044" result="shape"/>
</filter>
<clipPath id="clip0_1_2044">
<rect width="129.937" height="242.235" fill="white" transform="matrix(-1 0 0 1 136.235 6.30005)"/>
</clipPath>
</defs>
</svg>
